# xmcd
#
# Track frame offsets: 
#        150
#        19259
#        40228
#        55480
#        71194
#        90081
#        103597
#        126090
#        138669
#        156924
#
# Disc length: 2332 seconds
#
# Revision: 0
# Processed by: cddbd v1.5.1PL0 Copyright (c) Steve Scherf et al.
# Submitted via: ExactAudioCopy v0.95a5
#
DISCID=89091a0a
DTITLE=Will Harrell - Living and dying by the weather
DYEAR=1900
DGENRE=Country
TTITLE0=Just enough to Make You Smile
TTITLE1=Living and Dying by the Weather
TTITLE2=Week by Week
TTITLE3=Vaya a la Playa
TTITLE4=Ain't just the Miles
TTITLE5=Southern Time
TTITLE6=This Picture
TTITLE7=Standup Man
TTITLE8=That Mountain
TTITLE9=Cowboys and Hippies
EXTD=
EXTT0=
EXTT1=
EXTT2=
EXTT3=
EXTT4=
EXTT5=
EXTT6=
EXTT7=
EXTT8=
EXTT9=
PLAYORDER=
